<mxfile host="app.diagrams.net" modified="2024-04-04T05:16:43.356Z" agent="Mozilla/5.0 (Windows NT 10.0; Win64; x64) AppleWebKit/537.36 (KHTML, like Gecko) Chrome/123.0.0.0 Safari/537.36" etag="f8p_j_TDMC5UKydmyJis" version="24.0.7" type="github">
  <diagram name="第 1 页" id="SC0fV7b5pz4eN1oXZCr2">
    <mxGraphModel dx="954" dy="558" grid="0" gridSize="10" guides="1" tooltips="1" connect="1" arrows="1" fold="1" page="1" pageScale="1" pageWidth="827" pageHeight="1169" math="0" shadow="0">
      <root>
        <mxCell id="0" />
        <mxCell id="1" parent="0" />
        <mxCell id="TGm14rWRdh60TBYfFHWa-1" value="" style="rounded=1;whiteSpace=wrap;html=1;fillColor=#f5f5f5;fontColor=#333333;strokeColor=#052d61;gradientColor=none;" vertex="1" parent="1">
          <mxGeometry x="40" y="63" width="748" height="474" as="geometry" />
        </mxCell>
        <mxCell id="TGm14rWRdh60TBYfFHWa-2" value="&lt;span style=&quot;color: rgb(48, 68, 85); font-weight: 700; orphans: 4; text-align: start; white-space-collapse: preserve; background-color: rgb(255, 255, 255);&quot;&gt;&lt;font face=&quot;Comic Sans MS&quot;&gt;Monolithic&lt;/font&gt;&lt;/span&gt;" style="rounded=1;whiteSpace=wrap;html=1;fillColor=#fff2cc;strokeColor=#d6b656;" vertex="1" parent="1">
          <mxGeometry x="120" y="93" width="142" height="33" as="geometry" />
        </mxCell>
        <mxCell id="TGm14rWRdh60TBYfFHWa-3" value="&lt;span style=&quot;color: rgb(48, 68, 85); font-weight: 700; orphans: 4; text-align: start; white-space-collapse: preserve; background-color: rgb(255, 255, 255);&quot;&gt;&lt;font face=&quot;Comic Sans MS&quot;&gt;Microservices&lt;/font&gt;&lt;/span&gt;" style="rounded=1;whiteSpace=wrap;html=1;fillColor=#fff2cc;strokeColor=#d6b656;" vertex="1" parent="1">
          <mxGeometry x="561" y="93" width="142" height="33" as="geometry" />
        </mxCell>
        <mxCell id="TGm14rWRdh60TBYfFHWa-6" value="" style="endArrow=none;dashed=1;html=1;dashPattern=8 8;strokeWidth=2;rounded=0;entryX=0.5;entryY=0;entryDx=0;entryDy=0;exitX=0.5;exitY=1;exitDx=0;exitDy=0;strokeColor=#052d61;" edge="1" parent="1" source="TGm14rWRdh60TBYfFHWa-1" target="TGm14rWRdh60TBYfFHWa-1">
          <mxGeometry width="50" height="50" relative="1" as="geometry">
            <mxPoint x="387" y="315" as="sourcePoint" />
            <mxPoint x="437" y="265" as="targetPoint" />
          </mxGeometry>
        </mxCell>
        <mxCell id="TGm14rWRdh60TBYfFHWa-7" value="&lt;font face=&quot;Comic Sans MS&quot;&gt;Fronted&lt;/font&gt;" style="rounded=1;whiteSpace=wrap;html=1;fillColor=#f8cecc;strokeColor=#b85450;" vertex="1" parent="1">
          <mxGeometry x="120" y="171" width="140" height="39" as="geometry" />
        </mxCell>
        <mxCell id="TGm14rWRdh60TBYfFHWa-8" value="&lt;font face=&quot;Comic Sans MS&quot;&gt;Bakcked&lt;/font&gt;" style="rounded=1;whiteSpace=wrap;html=1;fillColor=#f8cecc;strokeColor=#b85450;" vertex="1" parent="1">
          <mxGeometry x="120" y="320" width="140" height="39" as="geometry" />
        </mxCell>
        <mxCell id="TGm14rWRdh60TBYfFHWa-9" value="DB" style="shape=cylinder3;whiteSpace=wrap;html=1;boundedLbl=1;backgroundOutline=1;size=15;fillColor=#f8cecc;strokeColor=#b85450;" vertex="1" parent="1">
          <mxGeometry x="161" y="438" width="60" height="80" as="geometry" />
        </mxCell>
        <mxCell id="TGm14rWRdh60TBYfFHWa-10" value="" style="endArrow=classic;html=1;rounded=0;exitX=0.5;exitY=1;exitDx=0;exitDy=0;flowAnimation=1;fillColor=#d80073;strokeColor=#A50040;" edge="1" parent="1" source="TGm14rWRdh60TBYfFHWa-7" target="TGm14rWRdh60TBYfFHWa-8">
          <mxGeometry width="50" height="50" relative="1" as="geometry">
            <mxPoint x="387" y="315" as="sourcePoint" />
            <mxPoint x="437" y="265" as="targetPoint" />
          </mxGeometry>
        </mxCell>
        <mxCell id="TGm14rWRdh60TBYfFHWa-11" value="" style="endArrow=classic;html=1;rounded=0;exitX=0.5;exitY=1;exitDx=0;exitDy=0;flowAnimation=1;fillColor=#d80073;strokeColor=#A50040;" edge="1" parent="1">
          <mxGeometry width="50" height="50" relative="1" as="geometry">
            <mxPoint x="189.5" y="359" as="sourcePoint" />
            <mxPoint x="189.5" y="469" as="targetPoint" />
          </mxGeometry>
        </mxCell>
        <mxCell id="TGm14rWRdh60TBYfFHWa-12" value="&lt;font face=&quot;Comic Sans MS&quot;&gt;Fronted&lt;/font&gt;" style="rounded=1;whiteSpace=wrap;html=1;fillColor=#f8cecc;strokeColor=#b85450;" vertex="1" parent="1">
          <mxGeometry x="563" y="171" width="140" height="39" as="geometry" />
        </mxCell>
        <mxCell id="TGm14rWRdh60TBYfFHWa-13" value="Microservices" style="rounded=1;whiteSpace=wrap;html=1;fillColor=#ffe6cc;strokeColor=#d79b00;" vertex="1" parent="1">
          <mxGeometry x="466" y="253" width="97" height="32" as="geometry" />
        </mxCell>
        <mxCell id="TGm14rWRdh60TBYfFHWa-14" value="Microservices" style="rounded=1;whiteSpace=wrap;html=1;fillColor=#e1d5e7;strokeColor=#9673a6;" vertex="1" parent="1">
          <mxGeometry x="659" y="327" width="97" height="32" as="geometry" />
        </mxCell>
        <mxCell id="TGm14rWRdh60TBYfFHWa-15" value="Microservices" style="rounded=1;whiteSpace=wrap;html=1;fillColor=#d5e8d4;strokeColor=#82b366;" vertex="1" parent="1">
          <mxGeometry x="466" y="385" width="97" height="32" as="geometry" />
        </mxCell>
        <mxCell id="TGm14rWRdh60TBYfFHWa-22" style="edgeStyle=orthogonalEdgeStyle;rounded=0;orthogonalLoop=1;jettySize=auto;html=1;exitX=0.5;exitY=1;exitDx=0;exitDy=0;entryX=0.5;entryY=1;entryDx=0;entryDy=0;curved=1;flowAnimation=1;fillColor=#d80073;strokeColor=#A50040;" edge="1" parent="1">
          <mxGeometry relative="1" as="geometry">
            <mxPoint x="689.4" y="479" as="sourcePoint" />
            <mxPoint x="496.4" y="280" as="targetPoint" />
            <Array as="points">
              <mxPoint x="631" y="479" />
              <mxPoint x="631" y="480" />
              <mxPoint x="423" y="480" />
              <mxPoint x="423" y="280" />
            </Array>
          </mxGeometry>
        </mxCell>
        <mxCell id="TGm14rWRdh60TBYfFHWa-16" value="Microservices" style="rounded=1;whiteSpace=wrap;html=1;fillColor=#dae8fc;strokeColor=#6c8ebf;" vertex="1" parent="1">
          <mxGeometry x="659" y="452" width="97" height="32" as="geometry" />
        </mxCell>
        <mxCell id="TGm14rWRdh60TBYfFHWa-18" value="" style="endArrow=classic;html=1;rounded=0;exitX=0.5;exitY=1;exitDx=0;exitDy=0;entryX=0.5;entryY=0;entryDx=0;entryDy=0;flowAnimation=1;fillColor=#d80073;strokeColor=#A50040;" edge="1" parent="1" source="TGm14rWRdh60TBYfFHWa-12" target="TGm14rWRdh60TBYfFHWa-13">
          <mxGeometry width="50" height="50" relative="1" as="geometry">
            <mxPoint x="387" y="315" as="sourcePoint" />
            <mxPoint x="437" y="265" as="targetPoint" />
          </mxGeometry>
        </mxCell>
        <mxCell id="TGm14rWRdh60TBYfFHWa-19" value="" style="endArrow=classic;html=1;rounded=0;exitX=0.603;exitY=1.031;exitDx=0;exitDy=0;exitPerimeter=0;entryX=0;entryY=0.25;entryDx=0;entryDy=0;flowAnimation=1;fillColor=#d80073;strokeColor=#A50040;" edge="1" parent="1" source="TGm14rWRdh60TBYfFHWa-13" target="TGm14rWRdh60TBYfFHWa-14">
          <mxGeometry width="50" height="50" relative="1" as="geometry">
            <mxPoint x="387" y="315" as="sourcePoint" />
            <mxPoint x="437" y="265" as="targetPoint" />
          </mxGeometry>
        </mxCell>
        <mxCell id="TGm14rWRdh60TBYfFHWa-20" value="" style="endArrow=classic;html=1;rounded=0;flowAnimation=1;fillColor=#d80073;strokeColor=#A50040;" edge="1" parent="1" target="TGm14rWRdh60TBYfFHWa-15">
          <mxGeometry width="50" height="50" relative="1" as="geometry">
            <mxPoint x="661" y="358" as="sourcePoint" />
            <mxPoint x="669" y="345" as="targetPoint" />
          </mxGeometry>
        </mxCell>
        <mxCell id="TGm14rWRdh60TBYfFHWa-21" value="" style="endArrow=classic;html=1;rounded=0;entryX=0.5;entryY=0;entryDx=0;entryDy=0;exitX=1;exitY=1;exitDx=0;exitDy=0;flowAnimation=1;fillColor=#d80073;strokeColor=#A50040;" edge="1" parent="1" source="TGm14rWRdh60TBYfFHWa-15" target="TGm14rWRdh60TBYfFHWa-16">
          <mxGeometry width="50" height="50" relative="1" as="geometry">
            <mxPoint x="671" y="368" as="sourcePoint" />
            <mxPoint x="573" y="397" as="targetPoint" />
          </mxGeometry>
        </mxCell>
      </root>
    </mxGraphModel>
  </diagram>
</mxfile>
